Coordinates
version=1
nRows=12
nColumns=24
inDegrees=yes

Units are S.I. units (second, meters, Newtons, ...)
Angles are in degrees.

endheader
time	pelvis_tilt	pelvis_list	pelvis_rotation	pelvis_tx	pelvis_ty	pelvis_tz	hip_flexion_r	hip_adduction_r	hip_rotation_r	knee_angle_r	ankle_angle_r	subtalar_angle_r	mtp_angle_r	hip_flexion_l	hip_adduction_l	hip_rotation_l	knee_angle_l	ankle_angle_l	subtalar_angle_l	mtp_angle_l	lumbar_extension	lumbar_bending	lumbar_rotation
      0.56700000	     -1.30972162	      5.88171017	      6.65750592	     -0.76893178	      0.95334103	      0.31252516	     31.72212135	     -6.57176152	     -5.04466765	     -7.50901864	      9.48560709	     -5.02786323	      0.77804051	    -20.18249204	      7.61090877	      9.07748163	     -2.37412310	     14.73300657	     -7.92353401	      0.16506740	      1.00024673	     -4.54945431	     -2.39227728
      0.57116667	     -1.38802552	      5.79013529	      6.72812618	     -0.76267927	      0.95214039	      0.31268473	     31.97639647	     -6.49346311	     -5.05298363	     -8.07472862	      9.44133262	     -5.34202049	      1.30469745	    -20.37002256	      7.44657491	      8.82872259	     -2.60556771	     14.90545614	     -7.48951278	      0.04739786	      1.14707376	     -4.43253476	     -2.37859478
      0.57533333	     -1.44083782	      5.66080019	      6.80397873	     -0.75636601	      0.95102862	      0.31286365	     32.16979462	     -6.37096551	     -5.01554427	     -8.63422752	      9.27344998	     -5.83225836	      1.77790394	    -20.60181949	      7.23396021	      8.67379449	     -2.79030784	     14.96472904	     -7.21476648	     -0.03497397	      1.24809886	     -4.27660487	     -2.54550761
      0.57950000	     -1.46692095	      5.55388907	      6.84624196	     -0.75000414	      0.94994555	      0.31302146	     32.38270869	     -6.27239901	     -5.06230229	     -9.33405606	      9.07479379	     -6.02950551	      1.82498478	    -20.88660423	      7.05885158	      8.58269226	     -2.93712852	     14.91566728	     -7.18052776	     -0.04247119	      1.32390000	     -4.13527296	     -2.55368926
      0.58366667	     -1.58600071	      5.43704981	      6.89633173	     -0.74364036	      0.94877501	      0.31325167	     32.67006304	     -6.14793792	     -4.91604453	    -10.03559543	      8.85934493	     -6.66630777	      2.12347842	    -20.98149464	      6.88081494	      8.31263660	     -3.25911849	     15.03579665	     -6.73585746	     -0.05194271	      1.51960124	     -3.99331644	     -2.62299095
      0.58783333	     -1.65500725	      5.30180061	      6.93104427	     -0.73719447	      0.94771256	      0.31348110	     32.89944608	     -6.00150566	     -4.82601387	    -10.76884859	      8.53618897	     -7.20594840	      2.42477679	    -21.14786388	      6.68215076	      8.08479699	     -3.54206422	     15.06179108	     -6.42765212	     -0.04177241	      1.66614559	     -3.81604439	     -2.66584530
      0.59200000	     -1.73480719	      5.17376251	      6.95061698	     -0.73071392	      0.94665467	      0.31373512	     33.15818757	     -5.85695207	     -4.73454791	    -11.57498729	      8.21231936	     -7.69964099	      2.67169714	    -21.29377752	      6.49954898	      7.88697940	     -3.84343704	     15.05452479	     -6.19586559	     -0.00893154	      1.82195853	     -3.65776320	     -2.70385588
      0.59616667	     -1.74687199	      5.03618610	      6.95320678	     -0.72415208	      0.94570717	      0.31396085	     33.36451754	     -5.70880904	     -4.76126861	    -12.46090000	      7.90244483	     -7.91774929	      2.69851063	    -21.54676159	      6.30759836	      7.77325653	     -4.07936698	     14.95812254	     -6.18098494	     -0.00327997	      1.90184055	     -3.47119299	     -2.72787413
      0.60033333	     -1.86726423	      4.87587429	      6.95749033	     -0.71760058	      0.94469734	      0.31430729	     33.62322944	     -5.49768339	     -4.50529965	    -13.23902696	      7.44153726	     -8.83967721	      3.01717245	    -21.56927552	      6.09855473	      7.41754526	     -4.52456698	     14.98298783	     -5.68029801	      0.11796346	      2.12052315	     -3.27340321	     -2.75077991
      0.60450000	     -1.97966339	      4.73821767	      6.94784488	     -0.71099812	      0.94371388	      0.31460304	     33.91423275	     -5.32779007	     -4.39264054	    -14.11979028	      6.95241108	     -9.30583034	      3.20280390	    -21.63665728	      5.92696389	      7.22455716	     -4.91163717	     14.92207739	     -5.52731168	      0.21877005	      2.33871254	     -3.09574975	     -2.76205035
      0.60866667	     -2.06551622	      4.58211397	      6.92676733	     -0.70434654	      0.94282873	      0.31494084	     34.16151855	     -5.12505333	     -4.26540757	    -14.99622203	      6.46121625	     -9.86930104	      3.37609132	    -21.70676484	      5.73459963	      6.99053786	     -5.33780925	     14.81141414	     -5.32615191	      0.34936993	      2.52874941	     -2.89313180	     -2.76538607
      0.61283333	     -2.15967858	      4.42279168	      6.89439946	     -0.69765301	      0.94197410	      0.31529703	     34.42003750	     -4.91435859	     -4.14381839	    -15.89338364	      5.94840124	    -10.36334354	      3.50311767	    -21.76154231	      5.54514615	      6.77333411	     -5.77565637	     14.66122396	     -5.16138778	      0.48264518	      2.72715280	     -2.69142995	     -2.76198821
